<?xml version="1.0" encoding="UTF-8"?>
<!-- Created with Inkscape (http://www.inkscape.org/) -->
<svg width="7.43mm" height="6.038mm" version="1.1" viewBox="0 0 7.43 6.038" xmlns="http://www.w3.org/2000/svg">
 <path d="m2.8056 4.9086c-0.23264-0.027258-0.44116-0.10186-0.63329-0.22659-0.37304-0.24215-0.64876-0.61564-0.74209-1.0052-0.020973-0.087555-0.044399-0.25108-0.037023-0.25847 0.00187-0.00187 0.027303 0.028482 0.056529 0.067432 0.069538 0.092671 0.22291 0.25165 0.32548 0.33736 0.22102 0.18471 0.50195 0.32593 0.75886 0.38147 0.39442 0.085264 0.67617 0.021677 1.1959-0.26991 0.41207-0.23118 0.47763-0.25391 0.91846-0.31846 0.27208-0.039839 0.41101-0.070506 0.5725-0.12639 0.32054-0.11092 0.55206-0.24142 0.76881-0.43333l0.047662-0.0422-3.071e-4 0.11239c-1.746e-4 0.061812-0.005817 0.14303-0.012546 0.18047-0.053984 0.30062-0.29855 0.56746-0.69894 0.76267-0.23742 0.11574-0.42027 0.17006-0.73164 0.21738-0.43759 0.066502-0.51983 0.096023-0.89878 0.32267-0.28224 0.16881-0.4761 0.25531-0.63882 0.2851-0.061646 0.011282-0.20447 0.019024-0.25084 0.013592zm-0.086244-0.94863c-0.47983-0.055815-0.98168-0.42476-1.2028-0.88427-0.22688-0.47147-0.14437-0.95569 0.22907-1.3442 0.15222-0.15838 0.28274-0.25387 0.48999-0.35853 0.72687-0.36706 1.6696-0.30013 2.9122 0.20677 0.46256 0.1887 0.71638 0.36735 0.8305 0.58452 0.11327 0.21555 0.054844 0.45814-0.16279 0.67598-0.20934 0.20953-0.60758 0.40056-0.98315 0.47161-0.038722 0.0073259-0.15824 0.025767-0.26559 0.040978-0.42131 0.059702-0.51891 0.093504-0.93186 0.32274-0.24952 0.13851-0.35019 0.18787-0.4679 0.22936-0.14287 0.050369-0.31071 0.071021-0.44768 0.055088zm0.39863-0.74409c0.24019-0.058452 0.43615-0.24699 0.51371-0.49422 0.028295-0.090204 0.034551-0.23998 0.014215-0.34036-0.054958-0.27123-0.24876-0.47839-0.51993-0.55572-0.10034-0.028621-0.26811-0.028609-0.3685 1.84e-5 -0.33252 0.094846-0.54809 0.39069-0.53023 0.7277 0.00591 0.1116 0.022241 0.1793 0.065223 0.27045 0.040255 0.085358 0.077221 0.13837 0.1409 0.20205 0.18038 0.18038 0.43454 0.25096 0.68458 0.1901zm-0.30329-0.27076c-0.11043-0.035704-0.19778-0.10338-0.25396-0.19678-0.16194-0.2692 0.0048596-0.61925 0.3182-0.6678 0.2657-0.041167 0.50769 0.17069 0.50769 0.44449 0 0.19356-0.14036 0.37406-0.33016 0.42459-0.065034 0.017316-0.18097 0.015161-0.24177-0.0045z" fill="#57b1ff" stroke-width=".0090782"/>
 <path d="m-10.593-21.838s3.3616 0.09792 5.8492 6.8833c1.1506 3.1385 3.0352 10.302 3.0352 10.302s1.4013-5.1412 2.5923-7.7567c1.4045-3.0846 2.8795-4.6146 3.6377-5.7095 0.27416-0.39589 0.37252-0.68381 0.10036-0.87966-0.3972-0.28584-0.93151 0.51588-1.26 0.91875-0.57141 0.70086-1.9508 2.8644-1.9508 2.8644s-1.8507-3.0861 0.67215-5.3838c1.3496-1.2292 5.5487-1.4939 5.5487-1.4939s0.41362-0.10504 0.69324-0.09112c0.03285 0.28217-0.04368 0.5329-0.10945 0.72971 0 0 0.37941 2.0668-0.94864 4.6155-0.72795 1.3971-2.3706 1.9396-4.0317 2.1709 0 0-1.416 2.9079-2.1476 5.9935-0.54448 2.2964-1.6469 6.8496-1.6469 6.8496h-2.4263s-1.4813-5.8004-3.185-11.623c-0.90897-3.0553-2.3076-5.9909-4.4223-8.3892z" fill="#fff" stroke="#fff" stroke-width=".47365px"/>
</svg>
