<?xml version="1.0" encoding="UTF-8"?>
<!-- Created with Inkscape (http://www.inkscape.org/) -->
<svg width="7.43mm" height="6.038mm" version="1.1" viewBox="0 0 7.43 6.038" xmlns="http://www.w3.org/2000/svg">
 <path d="m1.7766 1.185s0.70316 0.020482 1.2235 1.4398c0.24068 0.65649 0.63489 2.1549 0.63489 2.1549s0.29312-1.0754 0.54224-1.6225c0.29379-0.64522 0.60232-0.96526 0.76091-1.1943 0.057347-0.08281 0.077922-0.14304 0.020993-0.184-0.083084-0.059791-0.19485 0.10791-0.26356 0.19218-0.11952 0.1466-0.40806 0.59916-0.40806 0.59916s-0.38712-0.64553 0.1406-1.1262c0.2823-0.25712 1.1606-0.31249 1.1606-0.31249s0.086519-0.021972 0.14501-0.01906c0.00687 0.059023-0.00914 0.11147-0.022894 0.15264 0 0 0.079363 0.43232-0.19843 0.96545-0.15227 0.29224-0.49587 0.40572-0.84333 0.4541 0 0-0.29619 0.60826-0.44922 1.2537-0.11389 0.48035-0.34449 1.4328-0.34449 1.4328h-0.50752s-0.30985-1.2133-0.66622-2.4312c-0.19013-0.63909-0.48269-1.2531-0.92503-1.7548z" fill="#64f23a" stroke="#fff" stroke-width=".099076px"/>
</svg>
