<?xml version="1.0" encoding="UTF-8" standalone="no"?>
<!-- Created with Inkscape (http://www.inkscape.org/) -->

<svg
   width="19.67mm"
   height="19.67mm"
   viewBox="0 0 19.67 19.67"
   version="1.1"
   id="svg5"
   inkscape:version="1.1.1 (3bf5ae0d25, 2021-09-20)"
   sodipodi:docname="Zirkel-Centered.svg"
   xmlns:inkscape="http://www.inkscape.org/namespaces/inkscape"
   xmlns:sodipodi="http://sodipodi.sourceforge.net/DTD/sodipodi-0.dtd"
   xmlns:xlink="http://www.w3.org/1999/xlink"
   xmlns="http://www.w3.org/2000/svg"
   xmlns:svg="http://www.w3.org/2000/svg">
  <sodipodi:namedview
     id="namedview7"
     pagecolor="#ffffff"
     bordercolor="#999999"
     borderopacity="1"
     inkscape:pageshadow="0"
     inkscape:pageopacity="0"
     inkscape:pagecheckerboard="0"
     inkscape:document-units="mm"
     showgrid="false"
     inkscape:snap-global="false"
     inkscape:zoom="5.6568543"
     inkscape:cx="-13.611805"
     inkscape:cy="14.584077"
     inkscape:window-width="1920"
     inkscape:window-height="1017"
     inkscape:window-x="-8"
     inkscape:window-y="-8"
     inkscape:window-maximized="1"
     inkscape:current-layer="g5443"
     inkscape:snap-bbox="true"
     inkscape:bbox-paths="true" />
  <defs
     id="defs2">
    <inkscape:path-effect
       effect="powerclip"
       id="path-effect8778"
       is_visible="true"
       lpeversion="1"
       inverse="true"
       flatten="false"
       hide_clip="false"
       message="Füllregel Gerade-Ungerade im &lt;b&gt;Füllung und Kontur&lt;/b&gt;-Dialog verwenden, wenn das Anwenden des Ausschnitts mit nachfolgendem Umwandeln in Pfade kein Ergebnis bringt" />
    <linearGradient
       id="linearGradient3191"
       x1="-.70791"
       x2="21.22"
       y1="-1.4157"
       y2="16.152"
       gradientUnits="userSpaceOnUse"
       gradientTransform="translate(-9.7029474,5.9382277)">
      <stop
         stop-color="#575f6b"
         offset="0"
         id="stop3187" />
      <stop
         stop-color="#2c3036"
         stop-opacity=".99787"
         offset="1"
         id="stop3189" />
    </linearGradient>
    <linearGradient
       inkscape:collect="always"
       id="linearGradient986">
      <stop
         style="stop-color:#ffe67b;stop-opacity:1"
         offset="0"
         id="stop982" />
      <stop
         style="stop-color:#ff7277;stop-opacity:1"
         offset="1"
         id="stop984" />
    </linearGradient>
    <linearGradient
       inkscape:collect="always"
       xlink:href="#linearGradient986"
       id="linearGradient2272"
       gradientUnits="userSpaceOnUse"
       gradientTransform="matrix(1.0051231,0,0,1.0022119,0.05816498,-1.6148376e-8)"
       x1="2.0128012"
       y1="1.9009789"
       x2="17.332455"
       y2="17.052898" />
    <filter
       inkscape:label="Chalk and Sponge"
       inkscape:menu="Distort"
       inkscape:menu-tooltip="Low turbulence gives sponge look and high turbulence chalk"
       width="1.051555"
       height="1.0515583"
       y="-0.025779151"
       x="-0.025777506"
       style="color-interpolation-filters:sRGB"
       id="filter2279">
      <feTurbulence
         baseFrequency="0.4"
         type="fractalNoise"
         seed="0"
         numOctaves="5"
         result="result1"
         id="feTurbulence2275" />
      <feDisplacementMap
         xChannelSelector="R"
         yChannelSelector="G"
         scale="30"
         in="SourceGraphic"
         in2="result1"
         id="feDisplacementMap2277" />
      <feGaussianBlur
         stdDeviation="0.2112623"
         id="feGaussianBlur2407" />
    </filter>
    <linearGradient
       id="linearGradient4454"
       x1="-.70791"
       x2="21.22"
       y1="-1.4157"
       y2="16.152"
       gradientUnits="userSpaceOnUse"
       gradientTransform="matrix(0.89658708,0,0,0.89658708,1.012782,3.0279517)">
      <stop
         stop-color="#575f6b"
         offset="0"
         id="stop2823"
         style="stop-color:#ffffff;stop-opacity:1" />
      <stop
         stop-color="#2c3036"
         stop-opacity=".99787"
         offset="1"
         id="stop2825"
         style="stop-color:#ffffff;stop-opacity:0.99607843" />
    </linearGradient>
    <filter
       style="color-interpolation-filters:sRGB;"
       inkscape:label="Roughen"
       id="filter4109"
       x="-0.0044065177"
       y="-0.0058912859"
       width="1.008813"
       height="1.0117826">
      <feTurbulence
         type="fractalNoise"
         numOctaves="1"
         seed="204"
         baseFrequency="0.669723 0.669723"
         result="turbulence"
         id="feTurbulence4105" />
      <feDisplacementMap
         in="SourceGraphic"
         in2="turbulence"
         scale="12.6935"
         yChannelSelector="G"
         xChannelSelector="R"
         id="feDisplacementMap4107" />
      <feGaussianBlur
         stdDeviation="0.032377778"
         id="feGaussianBlur4848" />
    </filter>
    <linearGradient
       id="linearGradient4454-8"
       x1="-.70791"
       x2="21.22"
       y1="-1.4157"
       y2="16.152"
       gradientUnits="userSpaceOnUse"
       gradientTransform="matrix(0.92687602,0,0,0.92687602,-0.83750378,1.062583)">
      <stop
         stop-color="#575f6b"
         offset="0"
         id="stop4129"
         style="stop-color:#ffffff;stop-opacity:1" />
      <stop
         stop-color="#2c3036"
         stop-opacity=".99787"
         offset="1"
         id="stop4131"
         style="stop-color:#ffffff;stop-opacity:0.99607843" />
    </linearGradient>
    <filter
       style="color-interpolation-filters:sRGB;"
       inkscape:label="Roughen"
       id="filter8089"
       x="-0.0044065178"
       y="-0.0058912858"
       width="1.008813"
       height="1.0117826">
      <feTurbulence
         type="fractalNoise"
         numOctaves="1"
         seed="269"
         baseFrequency="0.0428439 0.0757"
         result="turbulence"
         id="feTurbulence8085" />
      <feDisplacementMap
         in="SourceGraphic"
         in2="turbulence"
         scale="1.88235"
         yChannelSelector="G"
         xChannelSelector="R"
         id="feDisplacementMap8087" />
    </filter>
    <clipPath
       clipPathUnits="userSpaceOnUse"
       id="clipPath8724">
      <rect
         style="opacity:0.282004;fill:url(#linearGradient8728);fill-opacity:1;stroke:#ff7277;stroke-width:0;stroke-opacity:1"
         id="rect8726"
         width="19.669153"
         height="19.668221"
         x="0.001966458"
         y="0"
         ry="3.5827763" />
    </clipPath>
    <linearGradient
       inkscape:collect="always"
       xlink:href="#linearGradient986"
       id="linearGradient8728"
       gradientUnits="userSpaceOnUse"
       gradientTransform="matrix(1.0051231,0,0,1.0022119,0.05816404,0)"
       x1="2.0128012"
       y1="1.9009789"
       x2="17.332455"
       y2="17.052898" />
    <clipPath
       clipPathUnits="userSpaceOnUse"
       id="clipPath8724-2">
      <rect
         style="display:none;opacity:0.282004;fill:url(#linearGradient8728);fill-opacity:1;stroke:#ff7277;stroke-width:0;stroke-opacity:1"
         id="rect8726-3"
         width="19.669153"
         height="19.668221"
         x="0.001966458"
         y="0"
         ry="3.5827763"
         d="M 3.5847428,0 H 16.088343 c 1.984858,0 3.582777,1.5979182 3.582777,3.5827763 V 16.085444 c 0,1.984858 -1.597919,3.582777 -3.582777,3.582777 H 3.5847428 c -1.9848581,0 -3.58277634,-1.597919 -3.58277634,-3.582777 V 3.5827763 C 0.00196646,1.5979182 1.5998847,0 3.5847428,0 Z" />
      <path
         id="lpe_path-effect8778"
         style="opacity:0.282004;fill:url(#linearGradient8728);fill-opacity:1;stroke:#ff7277;stroke-width:0;stroke-opacity:1"
         class="powerclip"
         d="M -4.9980331,-5.0000005 H 24.671119 V 24.668221 H -4.9980331 Z" />
    </clipPath>
    <linearGradient
       inkscape:collect="always"
       xlink:href="#linearGradient986"
       id="linearGradient8775"
       gradientUnits="userSpaceOnUse"
       gradientTransform="matrix(1.0051231,0,0,1.0022119,0.05816501,5.6921387e-8)"
       x1="2.0128012"
       y1="1.9009789"
       x2="17.332455"
       y2="17.052898" />
    <clipPath
       clipPathUnits="userSpaceOnUse"
       id="clipPath9072">
      <path
         style="opacity:1;fill:#2b1100;fill-opacity:1;stroke:#ff7277;stroke-width:0;stroke-opacity:1"
         id="path9074"
         width="19.669151"
         height="19.668221"
         x="0.0019674301"
         y="0"
         ry="3.5827763"
         clip-path="url(#clipPath8724)"
         sodipodi:type="rect"
         d="M 3.5847437,0 H 16.088342 c 1.984859,0 3.582777,1.5979182 3.582777,3.5827763 V 16.085444 c 0,1.984858 -1.597918,3.582777 -3.582777,3.582777 H 3.5847437 c -1.984858,0 -3.58277627,-1.597919 -3.58277627,-3.582777 V 3.5827763 C 0.00196743,1.5979182 1.5998857,0 3.5847437,0 Z"
         transform="translate(0,-0.09921875)" />
    </clipPath>
    <clipPath
       clipPathUnits="userSpaceOnUse"
       id="clipPath9076">
      <path
         style="opacity:1;fill:#2b1100;fill-opacity:1;stroke:#ff7277;stroke-width:0;stroke-opacity:1"
         id="path9078"
         width="19.669151"
         height="19.668221"
         x="0.0019674301"
         y="0"
         ry="3.5827763"
         clip-path="url(#clipPath8724)"
         sodipodi:type="rect"
         d="M 3.5847437,0 H 16.088342 c 1.984859,0 3.582777,1.5979182 3.582777,3.5827763 V 16.085444 c 0,1.984858 -1.597918,3.582777 -3.582777,3.582777 H 3.5847437 c -1.984858,0 -3.58277627,-1.597919 -3.58277627,-3.582777 V 3.5827763 C 0.00196743,1.5979182 1.5998857,0 3.5847437,0 Z" />
    </clipPath>
    <linearGradient
       inkscape:collect="always"
       xlink:href="#linearGradient4454-8"
       id="linearGradient1067"
       gradientUnits="userSpaceOnUse"
       gradientTransform="matrix(0.92687602,0,0,0.92687602,-0.71333207,-0.61036274)"
       x1="-.70791"
       y1="-1.4157"
       x2="21.22"
       y2="16.152" />
    <linearGradient
       inkscape:collect="always"
       xlink:href="#linearGradient4454-8"
       id="linearGradient1207"
       gradientUnits="userSpaceOnUse"
       gradientTransform="matrix(0.87223706,0,0,0.87223706,0.55139818,2.3457001)"
       x1="-.70791"
       y1="-1.4157"
       x2="21.22"
       y2="16.152" />
  </defs>
  <g
     inkscape:label="Ebene 1"
     inkscape:groupmode="layer"
     id="layer1">
    <path
       style="opacity:1;fill:url(#linearGradient8775);fill-opacity:1;stroke:#ff7277;stroke-width:0;stroke-opacity:1"
       id="rect846-0-7"
       width="19.669151"
       height="19.668221"
       x="0.0019674301"
       y="0"
       ry="2.9213181"
       clip-path="url(#clipPath9076)"
       sodipodi:type="rect"
       d="M 2.9232855,0 H 16.749801 c 1.61841,0 2.921318,1.3029079 2.921318,2.9213181 V 16.746902 c 0,1.618411 -1.302908,2.921319 -2.921318,2.921319 H 2.9232855 c -1.6184102,0 -2.92131807,-1.302908 -2.92131807,-2.921319 V 2.9213181 C 0.00196743,1.3029079 1.3048753,0 2.9232855,0 Z"
       inkscape:path-effect="#path-effect8778"
       inkscape:label="rect846-0-7"
       transform="matrix(1.0016815,0,0,1.0016815,-0.03307622,-0.03307135)" />
    <g
       id="g5443"
       style="filter:url(#filter8089)"
       transform="matrix(1.0001283,0,0,1.0001283,-0.0032732,0.09824342)"
       clip-path="url(#clipPath9072)">
      <rect
         style="opacity:0.675325;fill:url(#linearGradient2272);fill-opacity:1;stroke:#ff7277;stroke-width:0;stroke-opacity:1;filter:url(#filter2279)"
         id="rect846-9"
         width="19.669476"
         height="19.668221"
         x="0.0019674301"
         y="0"
         ry="9.8341103" />
      <path
         d="M 9.0455747,16.207783 C 8.924921,16.199183 8.8646345,16.185543 8.771228,16.145583 8.3433587,15.962545 8.091346,15.714845 8.027778,15.414847 7.981066,15.194403 8.004985,14.723049 8.085427,14.27905 8.13618,13.998885 8.2173329,13.71256 8.3783778,13.245465 c 0.4444651,-1.289203 0.493634,-1.497121 0.4567484,-1.931338 -0.042944,-0.50552 -0.1175607,-0.920165 -0.1777845,-0.988036 -0.064425,-0.07258 -0.1971953,-0.09524 -0.3523856,-0.06013 -0.1851183,0.04188 -0.5719598,0.08576 -0.8482252,0.09621 -0.2437461,0.0092 -0.3197319,0.01744 -0.3510586,0.03797 -0.025845,0.01693 -0.062163,0.07999 -0.1027041,0.178332 -0.1192102,0.289149 -0.4514943,1.016281 -0.6510298,1.424677 -0.5728384,1.172467 -1.1404588,2.034535 -1.794788,2.726073 -0.094904,0.100292 -0.1505639,0.172189 -0.1505639,0.194488 0,0.04827 0.2906467,0.34246 0.4102155,0.415227 0.2077482,0.126428 0.4696772,0.175274 0.8085602,0.150788 0.2289524,-0.01655 0.2999801,-0.02952 0.6531099,-0.119201 l 0.2848546,-0.07235 -0.065109,0.05591 c -0.2124463,0.182438 -0.5399517,0.379839 -0.7657302,0.461536 -0.072399,0.0262 -0.2070489,0.06377 -0.299227,0.08351 -0.1447002,0.03098 -0.2012569,0.03476 -0.414008,0.02778 -0.343088,-0.01129 -0.5064014,-0.05896 -1.0176264,-0.297031 -0.1108271,-0.05161 -0.231687,-0.09702 -0.2685726,-0.100892 -0.062385,-0.0065 -0.076368,3.68e-4 -0.2001093,0.09895 -0.3024367,0.240985 -0.6240515,0.43497 -0.8273257,0.498995 -0.1529578,0.04818 -0.4870261,0.06212 -0.6513616,0.02718 -0.2741048,-0.0583 -0.5389028,-0.199956 -0.7289614,-0.390014 -0.1772014,-0.177202 -0.252443,-0.308382 -0.2962054,-0.516417 -0.024037,-0.11427 -0.023136,-0.131852 0.025758,-0.502842 0.027869,-0.211442 0.052473,-0.386357 0.054682,-0.388706 0.0022,-0.0023 0.00896,0.09654 0.015013,0.219745 0.021305,0.434172 0.070706,0.697311 0.1669624,0.889324 0.073803,0.147229 0.1525991,0.241066 0.2768661,0.329747 0.3270033,0.233346 0.7960438,0.261221 1.1707634,0.06958 0.2023507,-0.103484 0.5147844,-0.367287 0.5681314,-0.479692 0.035447,-0.0747 0.028106,-0.100687 -0.073253,-0.2594 C 3.0793875,14.883326 2.904562,14.505648 2.8007641,14.189493 2.4400671,13.090816 2.477939,11.930991 2.9183067,10.589965 3.3577061,9.251898 4.0023701,8.1475717 4.8542175,7.2738476 5.4375639,6.6755192 6.0135942,6.2503932 6.7423402,5.8803717 7.3545657,5.569525 7.5069407,5.5201051 8.329389,5.3657038 9.0381052,5.2326503 9.1109978,5.2112667 9.306131,5.0791815 9.4491814,4.982368 9.5664281,4.9207277 9.5664281,4.9423354 c 0,0.00841 -0.025634,0.068776 -0.056974,0.1341563 -0.031331,0.065383 -0.056974,0.1269388 -0.056974,0.1367834 0,0.00985 0.122689,0.07128 0.2726431,0.1365143 0.4885678,0.212536 0.7254378,0.3531836 0.9237538,0.5484872 0.501909,0.4943422 0.66732,1.181433 0.448723,1.8638255 -0.05704,0.1780621 -0.241387,0.5500203 -0.412071,0.83145 -0.434647,0.716642 -1.0347508,1.2909962 -1.688811,1.6162779 -0.049237,0.02449 -0.091156,0.04589 -0.093155,0.04755 -0.016468,0.01374 0.04617,0.148896 0.1197302,0.258352 0.1796312,0.26729 0.324717,0.618878 0.3912078,0.947961 0.040758,0.20175 0.041447,0.849561 0.00119,1.094285 -0.070416,0.427753 -0.16707,0.788889 -0.4693275,1.753724 l -0.1988809,0.634811 -0.00709,0.227885 c -0.015315,0.491725 0.084727,0.642459 0.4354006,0.656051 0.2767137,0.01072 0.485484,-0.05532 0.6853422,-0.216804 0.3432226,-0.277305 0.6386206,-0.754854 0.9336156,-1.509314 0.183855,-0.470198 0.224469,-0.857191 0.128589,-1.225097 -0.03849,-0.147659 -0.02421,-0.349875 0.03249,-0.460389 0.0829,-0.161564 0.207658,-0.256361 0.403374,-0.306498 0.17557,-0.04498 0.315751,-0.0021 0.434701,0.133072 0.08787,0.09984 0.130633,0.220094 0.149488,0.420445 0.0085,0.0905 0.02267,0.633331 0.03143,1.206268 0.01372,0.895906 0.03817,1.596015 0.05808,1.66299 0.0064,0.02154 0.544847,-0.192076 0.69134,-0.274266 0.304499,-0.170827 0.656669,-0.571816 0.828097,-0.942851 0.151182,-0.327236 0.249108,-0.730763 0.252371,-1.040041 l 0.002,-0.187189 -0.113939,-0.05967 c -0.150196,-0.07866 -0.217987,-0.148251 -0.293955,-0.301755 -0.0523,-0.10569 -0.06385,-0.147435 -0.06912,-0.249799 -0.0044,-0.08631 0.0012,-0.140827 0.01884,-0.183119 0.02319,-0.0555 0.03037,-0.06022 0.09162,-0.06022 0.09233,0 0.161135,0.03268 0.230387,0.109419 0.08414,0.09324 0.135465,0.188158 0.184796,0.34169 0.0469,0.145991 0.09105,0.198047 0.197832,0.233291 0.05816,0.0192 0.240733,0.01312 0.327989,-0.01091 l 0.03731,-0.01027 -0.03602,0.06104 c -0.04436,0.0752 -0.105044,0.101978 -0.283061,0.124957 -0.09898,0.01278 -0.139007,0.02478 -0.146691,0.04401 -0.0057,0.01454 -0.01643,0.1766 -0.02362,0.360123 -0.01198,0.306113 -0.0178,0.351838 -0.07043,0.553427 -0.141141,0.540624 -0.331665,0.922319 -0.641876,1.285885 -0.253268,0.296851 -0.561954,0.519626 -0.889665,0.642064 -0.118063,0.04411 -0.397493,0.106703 -0.476231,0.106676 l -0.04627,-1.4e-5 -0.315491,-1.070256 c -0.173526,-0.588619 -0.320718,-1.080119 -0.327111,-1.092223 -0.01435,-0.02715 -0.0107,-0.03332 -0.407032,0.68935 -0.540185,0.984901 -0.604452,1.095271 -0.698002,1.198648 -0.1516131,0.167536 -0.317401,0.27223 -0.5905463,0.372944 -0.1351336,0.04982 -0.1493086,0.05089 -0.4208131,0.03159 z M 4.1317395,14.242374 c 0.2251062,-0.289606 0.3984164,-0.542363 0.611051,-0.891181 0.4130846,-0.67764 0.8458762,-1.685225 1.2334349,-2.871589 l 0.1085677,-0.332347 -0.088266,-0.09086 C 5.6261019,9.6750871 5.5154989,9.4090787 5.6105819,9.1281601 5.6807085,8.9209588 5.7979686,8.7930337 5.9634876,8.7431835 c 0.1095002,-0.032977 0.3977439,-0.029946 0.612889,0.00646 0.096742,0.016363 0.1782863,0.025624 0.1812092,0.020586 0.00293,-0.00502 0.054828,-0.1410242 0.1153459,-0.3021678 C 7.3530003,7.1897926 7.7962371,6.4365695 8.5202311,5.668822 8.6566289,5.5241935 8.6575166,5.5227142 8.614328,5.5111572 8.5520824,5.4945102 8.1495641,5.5228522 7.9961043,5.5546883 7.7833442,5.5988254 7.6348155,5.6527211 7.3756929,5.7798302 6.4940161,6.212299 5.8692473,6.7460824 5.1431911,7.6871402 4.0058704,9.1613087 3.4894362,10.669548 3.5323827,12.390906 c 0.01351,0.540848 0.073157,0.950292 0.1988003,1.364695 0.077462,0.255491 0.2367886,0.645525 0.2636863,0.645525 0.00738,0 0.068943,-0.07141 0.1367922,-0.158705 z M 7.7726004,9.956867 C 8.047476,9.929718 8.2796741,9.905313 8.2886042,9.902632 8.2975342,9.899942 8.2865542,9.888269 8.2641882,9.876676 8.2418256,9.8650834 8.1298258,9.7899494 8.0152957,9.7097048 7.7634175,9.5332381 7.6005525,9.4364067 7.5564314,9.4368819 7.4841844,9.4376601 7.3876758,9.4981995 7.354269,9.5636772 7.3186798,9.6334407 7.1899335,9.9691323 7.1899335,9.9921656 c 0,0.020828 0.037315,0.018577 0.5826651,-0.03529 z M 6.4707559,9.3518675 c 0.073257,-0.140558 0.133197,-0.266107 0.133197,-0.279 0,-0.035837 -0.230665,-0.092106 -0.3775708,-0.092106 -0.072479,0 -0.1470313,0.010015 -0.1814064,0.024378 -0.1519984,0.063505 -0.2438807,0.214123 -0.2447952,0.4012676 -4.307e-4,0.092232 0.00659,0.1196137 0.047589,0.1851363 0.056727,0.090663 0.1430504,0.1565086 0.2760233,0.2105549 l 0.096428,0.03919 0.058666,-0.1169329 C 6.3111536,9.660042 6.3974877,9.4924255 6.4707479,9.3518675 Z M 8.8583673,9.7515844 C 9.0304493,9.6524752 9.3053608,9.3762636 9.4554764,9.1516686 9.7991113,8.6375207 10.060448,7.9392139 10.163332,7.2603181 c 0.01735,-0.1144941 0.027,-0.2866568 0.02765,-0.4932843 8.6e-4,-0.2696129 -0.0045,-0.343142 -0.03547,-0.4883174 C 10.105143,6.042645 10.029686,5.8918839 9.919783,5.8077033 9.6050361,5.566629 9.5339367,5.5291158 9.3696013,5.5173526 9.1822504,5.5039486 9.0709481,5.5665008 9.0006288,5.7247242 8.9447024,5.8505512 8.4730769,7.0051405 8.1127655,7.8983205 7.9466369,8.3101319 7.7626034,8.7641457 7.7037963,8.90725 c -0.058802,0.1430863 -0.106918,0.2686892 -0.106918,0.2791255 0,0.010436 0.1043806,0.079357 0.231947,0.153155 C 8.0591765,9.4727902 8.2503737,9.6006166 8.330412,9.674854 8.353377,9.696157 8.4193,9.738979 8.4769054,9.770018 8.6267251,9.850747 8.6916738,9.847609 8.8583583,9.751602 Z m 6.5109247,6.2933246 c -0.347732,-0.06264 -0.574802,-0.292064 -0.591281,-0.597459 -0.02326,-0.430792 0.431779,-0.91685 0.857505,-0.915953 0.27302,5.48e-4 0.573045,0.192954 0.691538,0.443416 0.189233,0.400003 -0.05416,0.878341 -0.528287,1.038247 -0.109079,0.03679 -0.316442,0.05213 -0.429466,0.03177 z M 16.207574,13.1076 c 0,-0.01487 0.801863,-3.2088857 1.14028,-4.5418421 0.109088,-0.4297163 0.211801,-0.8078519 0.228253,-0.8402994 0.03746,-0.07387 0.0905,-0.1186095 0.279861,-0.2360803 0.323094,-0.200432 0.446832,-0.2009341 0.621119,-0.0026 0.122734,0.1397062 0.162964,0.2384025 0.169617,0.416133 0.0119,0.3176339 -0.04965,0.7731001 -0.143024,1.0583313 -0.210635,0.6434806 -0.81532,1.7887815 -1.647479,3.1203925 -0.111894,0.179049 -0.297326,0.479369 -0.41208,0.667366 -0.210447,0.344791 -0.236529,0.38434 -0.236529,0.358626 z M 4.1628242,5.4393585 c 0,-0.00521 0.055811,-0.082278 0.1240249,-0.1712661 C 5.1803519,4.1024395 6.3203983,3.458421 7.7112738,3.3336161 8.2971845,3.2810321 9.2587831,3.2750831 10.47841,3.3164971 c 0.246194,0.00836 0.744275,0.022918 1.106837,0.032352 0.362562,0.00943 1.058421,0.031546 1.546343,0.049138 1.792906,0.064644 2.552673,0.060153 3.011278,-0.017801 0.111903,-0.01902 0.478141,-0.1034393 0.813868,-0.187593 0.335718,-0.084154 0.62389,-0.1561496 0.640378,-0.1599959 0.02914,-0.00679 0.02914,-0.00603 0,0.026268 -0.01649,0.018289 -0.09656,0.083334 -0.177937,0.1445478 -0.71267,0.5360694 -1.745386,0.8796415 -2.952819,0.9823904 -0.823354,0.070079 -1.407194,0.051277 -3.743789,-0.120573 C 8.9909008,3.9378692 8.8157974,3.9282847 8.207732,3.9274777 7.7284703,3.9268461 7.5817349,3.9321131 7.4020051,3.9563999 6.8184703,4.0352583 6.3613364,4.1571098 5.8800485,4.3620607 5.4728635,4.5354696 5.1754566,4.7100799 4.7243477,5.040544 4.285038,5.3623829 4.1627794,5.4491994 4.1627794,5.4393459 Z"
         fill="url(#linearGradient4454)"
         stroke-width="0.0162775"
         id="path2830"
         style="opacity:0.215213;mix-blend-mode:normal;fill:url(#linearGradient4454);stroke-opacity:1;filter:url(#filter4109)"
         transform="matrix(1.77978,0,0,1.8795263,-7.6828407,-10.488608)" />
      <path
         d="m 3.6158898,4.6916166 c 0,-0.00507 0.054297,-0.080045 0.1206565,-0.1666147 0.8692366,-1.1339954 1.9783209,-1.7605233 3.3314223,-1.8819388 0.5699982,-0.051156 1.5054812,-0.056943 2.6919841,-0.016655 0.239509,0.00813 0.7240623,0.022296 1.0767773,0.031472 0.352716,0.00918 1.029677,0.030689 1.504348,0.047802 1.744212,0.062889 2.483346,0.058519 2.929496,-0.017318 0.108865,-0.018504 0.465155,-0.1006301 0.791765,-0.1824982 0.3266,-0.081869 0.606945,-0.1519088 0.622987,-0.1556507 0.02834,-0.00661 0.02834,-0.00587 0,0.025555 -0.01605,0.017791 -0.09394,0.081071 -0.173105,0.140622 C 15.818906,3.037905 14.814237,3.3721462 13.639595,3.4721045 12.838603,3.54028 12.270619,3.5219889 9.9974817,3.3548063 8.3128428,3.2309056 8.1424948,3.2215814 7.5509437,3.2207964 7.0846981,3.2201819 6.9419478,3.2253057 6.7670991,3.248933 6.1994124,3.3256497 5.7546936,3.4441919 5.2864767,3.6435766 4.8903503,3.812276 4.6010205,3.9821441 4.1621631,4.3036333 3.7347844,4.6167316 3.6158462,4.7011903 3.6158462,4.6916043 Z"
         fill="url(#linearGradient4454)"
         stroke-width="0.0158354"
         id="path4136"
         style="fill:url(#linearGradient1207)"
         sodipodi:nodetypes="ccccsssccsccscccccc" />
      <path
         d="M 7.5908287,13.014715 C 6.560712,13.150463 7.3609172,12.889926 7.2643552,12.848626 6.8220312,12.659404 6.6043637,12.505125 6.5386477,12.194992 c -0.04829,-0.227891 -0.02356,-0.715168 0.0596,-1.174167 0.05247,-0.28963 0.136362,-0.585628 0.302848,-1.0685015 0.45948,-1.332752 0.51031,-1.547695 0.472178,-1.99658 -0.0444,-0.522601 -0.121532,-0.951254 -0.18379,-1.021418 -0.0666,-0.07503 -0.203857,-0.09845 -0.36429,-0.06216 -0.191372,0.0433 -0.591282,0.08866 -0.87688,0.09946 -0.251981,0.0095 -0.330534,0.01803 -0.362919,0.03925 -0.02672,0.0175 -0.06426,0.0827 -0.106173,0.184355 -0.123238,0.298918 -0.466747,1.050614 -0.673024,1.472806 -0.59219,1.212076 -1.1789859,2.1032665 -1.85542,2.8181665 -0.09811,0.10368 -0.1556503,0.178006 -0.1556503,0.201058 0,0.0499 0.3004654,0.354029 0.4240736,0.429255 0.2147664,0.130699 0.485544,0.181195 0.8358753,0.155882 0.2366874,-0.01711 0.3101144,-0.03051 0.6751734,-0.123228 l 0.294478,-0.0748 -0.06731,0.0578 c -0.219623,0.1886 -0.558193,0.392671 -0.791598,0.477128 -0.074845,0.02708 -0.2140439,0.06593 -0.309336,0.08633 -0.1495886,0.03202 -0.2080559,0.03594 -0.4279943,0.02871 -0.3546784,-0.01166 -0.5235088,-0.06094 -1.0520043,-0.307057 -0.1145711,-0.05335 -0.239514,-0.100298 -0.2776457,-0.104302 -0.064492,-0.0068 -0.078951,3.81e-4 -0.2068695,0.10229 -0.3126538,0.249126 -0.6451335,0.449665 -0.8552748,0.515853 -0.15812507,0.04981 -0.50347907,0.06421 -0.67336617,0.0281 -0.2833663,-0.06025 -0.5571098,-0.206692 -0.753589,-0.403172 -0.1831878,-0.183187 -0.2609713,-0.318799 -0.3062121,-0.533862 -0.02485,-0.11813 -0.023913,-0.136306 0.026629,-0.519829 0.028807,-0.218585 0.054241,-0.399409 0.05653,-0.401838 0.00222,-0.0024 0.00927,0.0998 0.015516,0.227168 0.022023,0.44884 0.073093,0.720869 0.1726029,0.919369 0.0763,0.152202 0.1577543,0.249209 0.2862193,0.340886 0.3380502,0.241229 0.8229361,0.270045 1.21031457,0.07193 0.2091867,-0.10698 0.5321752,-0.379695 0.5873243,-0.495897 0.036649,-0.07723 0.029057,-0.104089 -0.075726,-0.268164 C 1.4230894,11.645515 1.2423578,11.255078 1.1350534,10.928243 0.76217123,9.7924495 0.80132243,8.5934425 1.2565668,7.2071145 1.7108102,5.823844 2.3772526,4.6822108 3.2578775,3.7789702 3.8609309,3.1604284 4.4564207,2.7209409 5.2097857,2.3384192 c 0.632908,-0.3213479 0.790431,-0.3724374 1.640663,-0.5320547 0.732659,-0.1375484 0.808014,-0.1596544 1.009739,-0.2962017 0.05155,-0.047456 0.140127,-0.00185 0.210191,-0.00278 -0.03239,0.067591 -0.05889,0.1312271 -0.05889,0.1414042 0,0.010182 0.126833,0.073688 0.281853,0.1411262 0.505074,0.2197159 0.749944,0.365115 0.954961,0.5670164 0.518865,0.5110423 0.689864,1.2213448 0.463883,1.9267901 -0.05897,0.1840776 -0.249543,0.5686014 -0.425992,0.8595385 -0.449332,0.740852 -1.069708,1.334609 -1.745864,1.67088 -0.0509,0.02531 -0.09423,0.04744 -0.0963,0.04915 -0.01703,0.0142 0.04772,0.153926 0.123775,0.267079 0.185699,0.27632 0.335687,0.639786 0.404424,0.979986 0.04214,0.208566 0.04285,0.878262 0.0012,1.131253 -0.0728,0.442203 -0.172714,0.8155388 -0.485183,1.8129688 l -0.2056,0.656256 -0.0073,0.235584 c -0.01583,0.508336 0.00187,0.637375 0.3643929,0.651427 0.286062,0.01108 0.6285221,0.01052 0.8351311,-0.156425 1.030261,-1.304923 0.9338988,-1.009788 0.2257528,0.02102 -0.156735,0.173196 -0.328123,0.281428 -0.610496,0.385543 -0.139699,0.05151 -0.1704059,0.186695 -0.4992978,0.166735 z M 2.5109916,10.98291 C 2.7437023,10.68352 2.9228675,10.422224 3.1426854,10.061623 3.569725,9.3610905 4.0171373,8.3194675 4.4177887,7.0930245 l 0.112235,-0.343574 -0.09125,-0.09393 C 4.0558344,6.2613295 3.9414949,5.9863344 4.0397901,5.6959259 c 0.0725,-0.2142011 0.1937166,-0.3464477 0.3648276,-0.397982 0.1132,-0.034091 0.411181,-0.030958 0.633594,0.00667 0.10001,0.016915 0.184309,0.02649 0.187331,0.021281 0.0031,-0.00519 0.05668,-0.1457883 0.119243,-0.3123757 0.496286,-1.3214437 0.954497,-2.1001125 1.702949,-2.8937964 0.141005,-0.1495144 0.141923,-0.1510437 0.09727,-0.1629912 -0.06434,-0.017209 -0.480464,0.01209 -0.639108,0.045002 -0.219948,0.045628 -0.373494,0.1013446 -0.641371,0.2327478 -0.911462,0.4470787 -1.557337,0.9988943 -2.307921,1.9717437 -1.1757423,1.5239695 -1.7096229,3.0831604 -1.6652255,4.8626694 0.013968,0.55912 0.075633,0.9823955 0.2055162,1.4107975 0.080082,0.264123 0.244788,0.667333 0.2725943,0.667333 0.0076,0 0.071277,-0.07383 0.1414134,-0.164067 z M 6.2748497,6.5526285 c 0.284162,-0.02807 0.524204,-0.0533 0.533436,-0.05607 0.0093,-0.0028 -0.0021,-0.01485 -0.02524,-0.02683 -0.02312,-0.01198 -0.138902,-0.08966 -0.257301,-0.172612 -0.260387,-0.182428 -0.428754,-0.282531 -0.474366,-0.282039 -0.07469,8.03e-4 -0.174456,0.06339 -0.208992,0.131078 -0.03679,0.07212 -0.169887,0.419153 -0.169887,0.442964 0,0.02153 0.03858,0.0192 0.602349,-0.03648 z M 4.9290257,5.9271904 c 0.07573,-0.145306 0.137697,-0.2750965 0.137697,-0.288425 0,-0.037047 -0.238458,-0.095218 -0.390326,-0.095218 -0.07493,0 -0.151999,0.010353 -0.187535,0.025202 -0.157133,0.065651 -0.25212,0.2213566 -0.253065,0.414823 -4.46e-4,0.09535 0.0069,0.1236551 0.0492,0.1913911 0.05864,0.09373 0.147883,0.161795 0.285348,0.217668 l 0.09969,0.04051 0.06065,-0.120884 c 0.03336,-0.06649 0.122606,-0.239764 0.198341,-0.3850711 z m 2.468271,0.4132201 c 0.177895,-0.102457 0.462094,-0.3879991 0.617281,-0.6201819 0.355243,-0.5315171 0.625409,-1.2534145 0.731768,-1.955245 0.01793,-0.1183621 0.02792,-0.2963408 0.02858,-0.5099489 8.89e-4,-0.2787209 -0.0046,-0.354734 -0.03667,-0.5048138 -0.05206,-0.2440464 -0.13007,-0.3999006 -0.243686,-0.486925 -0.32538,-0.2492185 -0.398881,-0.2879989 -0.568768,-0.3001596 -0.19368,-0.013857 -0.308743,0.050809 -0.381438,0.2143772 -0.05782,0.1300778 -0.545374,1.3236719 -0.917857,2.2470258 -0.171741,0.4257234 -0.361992,0.8950749 -0.422785,1.0430136 -0.06078,0.1479201 -0.11053,0.2777662 -0.11053,0.288555 0,0.010789 0.107907,0.082038 0.239782,0.1583285 0.238133,0.1377621 0.43579,0.2699071 0.518532,0.3466521 0.02374,0.02202 0.09189,0.06629 0.151442,0.09838 0.154881,0.08346 0.222024,0.08021 0.39434,-0.01904 z"
         fill="url(#linearGradient4454)"
         stroke-width="0.0168274"
         id="path4136-3"
         style="fill:url(#linearGradient1067);filter:url(#filter8089)"
         sodipodi:nodetypes="ccsccccccccccsccccsssscccccsssccscscsccsccccsccsccccssccccccscccsscssscccccsccccscccccsscscccsscccccsccccccccccscsssscc"
         transform="matrix(1.2359897,0,0,1.2359897,2.9261865,1.0282709)" />
    </g>
  </g>
</svg>
