<?xml version="1.0" standalone="no"?>
<!DOCTYPE svg PUBLIC "-//W3C//DTD SVG 20010904//EN"
 "http://www.w3.org/TR/2001/REC-SVG-20010904/DTD/svg10.dtd">
<svg version="1.0" xmlns="http://www.w3.org/2000/svg"
 width="1052.000000pt" height="1052.000000pt" viewBox="0 0 1052.000000 1052.000000"
 preserveAspectRatio="xMidYMid meet">
<metadata>
Created by potrace 1.14, written by Peter Selinger 2001-2017
</metadata>
<g transform="translate(0.000000,1052.000000) scale(0.100000,-0.100000)"
fill="#000000" stroke="none">
<path d="M1100 10514 c-202 -31 -370 -92 -521 -189 -91 -59 -101 -67 -215
-180 -150 -148 -246 -305 -308 -503 -60 -191 -56 124 -56 -4382 0 -4506 -4
-4191 56 -4382 63 -199 158 -354 313 -509 155 -155 300 -244 506 -311 195 -62
-122 -58 4382 -58 2872 0 4135 3 4189 11 101 14 229 51 335 98 135 59 252 141
370 260 155 155 249 308 313 510 60 190 56 -123 56 4381 0 4506 4 4191 -56
4382 -63 200 -158 355 -313 509 -179 178 -342 271 -606 342 l-80 22 -4170 1
c-2293 1 -4181 0 -4195 -2z"/>
</g>
</svg>
